<svg width="100" height="100" xmlns="http://www.w3.org/2000/svg">

 <g>
  <title>Layer 1</title>
  <path d="m49.12854,16.44872c-0.43573,0.21786 -1.06995,1.53407 -2.39651,4.35729c-2.36214,5.02718 -3.97807,9.50444 -6.10021,14.8148c-2.78425,6.96717 -5.89174,13.21572 -8.06099,20.26141c-1.46187,4.74813 -1.96078,7.84313 -2.39651,9.15031l0,0.43573" id="svg_26" stroke="#000" fill="none"/>
  <path d="m66.99345,21.02388c0.21786,0 0.61022,0.23193 0.43573,1.30719c-0.7725,4.76037 -3.80809,11.65539 -5.88235,18.30063c-1.81068,5.8008 -3.76902,11.14931 -5.01089,17.64704c-0.53325,2.79011 -0.43573,5.22875 -0.65359,7.18953l0,0.87146l-0.43573,0.65359l0,0.21786" id="svg_27" stroke="#000" fill="none"/>
  <path d="m10.34863,61.32884c-0.21786,0.43573 -0.56772,1.99224 -0.21786,3.92156c0.33213,1.83157 1.60699,4.21874 3.05011,6.53594c2.3966,3.8482 6.09957,7.78423 11.32896,9.36818c10.59303,3.20856 19.38995,2.39651 27.23308,2.39651c7.18953,0 13.90995,0.9882 21.13287,-0.87146c6.15119,-1.58372 9.67388,-4.35249 11.98256,-7.84313c1.77451,-2.683 3.26797,-5.88234 4.57516,-8.27885l0.21786,-0.65359" id="svg_34" stroke="#000" fill="none"/>
 </g>
</svg>